<?xml version="1.0" standalone="no"?>
<!DOCTYPE svg PUBLIC "-//W3C//DTD SVG 20010904//EN"
 "http://www.w3.org/TR/2001/REC-SVG-20010904/DTD/svg10.dtd">
<svg version="1.0" xmlns="http://www.w3.org/2000/svg"
 width="512.000000pt" height="512.000000pt" viewBox="0 0 512.000000 512.000000"
 preserveAspectRatio="xMidYMid meet">
<metadata>
Created by potrace 1.11, written by Peter Selinger 2001-2013
</metadata>
<g transform="translate(0.000000,512.000000) scale(0.100000,-0.100000)"
fill="#000000" stroke="none">
<path d="M3310 4029 c-308 -33 -569 -233 -677 -519 -14 -36 -27 -76 -30 -90
-2 -14 -9 -45 -14 -70 -6 -25 -9 -90 -8 -145 7 -299 169 -554 442 -696 149
-78 287 -109 545 -123 29 -2 55 -5 57 -8 10 -10 -39 -103 -95 -182 -277 -384
-745 -625 -1220 -627 -214 -1 -368 23 -556 86 -229 76 -414 195 -589 377 -219
228 -383 543 -446 858 -23 114 -33 347 -19 435 4 28 10 73 14 100 9 77 44 192
82 272 75 159 24 296 -121 319 -49 7 -96 -10 -137 -51 -71 -71 -157 -291 -183
-470 -4 -22 -8 -51 -11 -65 -7 -41 -17 -201 -18 -265 0 -71 12 -248 19 -267 2
-7 6 -29 9 -48 37 -238 164 -556 311 -775 83 -124 194 -261 277 -342 71 -69
238 -204 277 -225 14 -7 53 -29 86 -49 107 -64 206 -110 313 -145 103 -34 252
-75 282 -79 8 -1 33 -5 55 -8 92 -16 128 -19 295 -21 96 -2 204 1 240 5 36 5
79 11 95 13 220 29 534 149 734 279 308 201 568 504 702 818 59 140 59 139
114 158 183 64 405 231 522 391 55 75 115 184 148 266 43 108 23 200 -55 249
-109 69 -227 16 -290 -129 -48 -112 -180 -279 -252 -317 -18 -10 -18 -7 -12
53 12 117 10 300 -4 377 -76 413 -466 705 -882 660z m212 -383 c190 -55 319
-237 313 -441 -10 -320 -350 -525 -640 -385 -103 50 -204 174 -235 289 -12 45
-14 154 -5 204 9 46 37 109 67 155 112 164 308 234 500 178z"/>
</g>
</svg>
