<?xml version="1.0" encoding="utf-8"?>
<svg viewBox="0 0 100 100" lang="en" role="graphics-document" width="512px" height="512px" xmlns="http://www.w3.org/2000/svg">
  <desc>Logo for MissPiggyBank - Make IT Work Cohort 16 - Team 5</desc>
  <title>MissPiggyBankLogo</title>
  <path style="fill: none; stroke-linecap: round; stroke-width: 15px;" d="M 274.866 57.147 C 274.166 58.892 273.393 60.543 272.552 62.102 C 271.712 63.662 270.803 65.13 269.83 66.51 C 268.857 67.889 267.819 69.181 266.721 70.387 C 265.623 71.593 264.464 72.713 263.249 73.751 C 262.034 74.789 260.763 75.744 259.438 76.62 C 258.114 77.496 256.737 78.291 255.311 79.01 C 253.886 79.729 252.411 80.371 250.892 80.939 C 249.373 81.507 247.809 82.001 246.204 82.424 L 246.138 82.441 L 246.071 82.459 L 246.005 82.476 L 245.938 82.494 L 245.872 82.511 L 245.805 82.529 L 245.739 82.546 L 245.673 82.564 L 245.653 82.629 L 245.632 82.695 L 245.612 82.76 L 245.591 82.826 L 245.571 82.891 L 245.55 82.956 L 245.53 83.021 L 245.509 83.087 C 244.876 85.11 244.17 87.073 243.397 88.976 C 242.624 90.878 241.784 92.721 240.879 94.503 C 239.975 96.285 239.007 98.008 237.979 99.67 C 236.951 101.331 235.864 102.933 234.721 104.474 C 233.578 106.015 232.379 107.495 231.129 108.915 C 229.879 110.335 228.577 111.694 227.228 112.993 C 225.879 114.292 224.482 115.53 223.042 116.707 C 221.602 117.884 220.118 119.001 218.595 120.057 C 217.075 121.117 215.519 122.113 213.932 123.043 C 212.345 123.973 210.728 124.837 209.084 125.636 C 207.441 126.434 205.772 127.166 204.082 127.832 C 202.393 128.498 200.682 129.097 198.956 129.63 C 197.23 130.162 195.489 130.627 193.737 131.026 C 191.985 131.424 190.223 131.755 188.455 132.018 C 186.687 132.281 184.914 132.476 183.141 132.603 C 181.368 132.73 179.595 132.789 177.826 132.78 C 174.631 132.762 171.55 132.57 168.583 132.218 C 165.616 131.866 162.762 131.354 160.019 130.698 C 157.276 130.042 154.644 129.242 152.122 128.312 C 149.6 127.383 147.187 126.325 144.882 125.153 C 142.577 123.981 140.38 122.695 138.288 121.312 C 136.197 119.928 134.211 118.446 132.33 116.882 C 130.449 115.317 128.672 113.669 126.997 111.953 C 125.323 110.238 123.75 108.454 122.279 106.619 C 120.8 104.788 119.423 102.905 118.144 100.986 C 116.865 99.066 115.685 97.109 114.602 95.131 C 113.518 93.152 112.531 91.153 111.639 89.147 C 110.746 87.142 109.948 85.131 109.243 83.13 C 108.537 81.128 107.924 79.137 107.401 77.17 C 106.879 75.204 106.446 73.263 106.102 71.364 C 105.758 69.464 105.501 67.605 105.331 65.802 C 105.161 63.999 105.077 62.253 105.077 60.579 C 105.077 58.143 105.173 55.879 105.341 53.781 C 105.509 51.683 105.749 49.751 106.038 47.981 C 106.326 46.211 106.663 44.602 107.023 43.151 C 107.383 41.699 107.767 40.405 108.152 39.263 C 108.536 38.12 108.921 37.13 109.281 36.288 C 109.642 35.445 109.978 34.75 110.267 34.198 C 110.555 33.646 110.795 33.236 110.963 32.965 C 111.132 32.693 111.228 32.56 111.228 32.56"/>
  <path d="M 82.168 37.104 C 82.168 39.459 81.975 41.254 81.823 42.801 C 81.823 42.801 82.421 42.451 82.915 42.029 C 83.41 41.607 83.787 41.364 84.233 40.874 C 84.68 40.382 85.039 39.941 85.435 39.373 C 85.839 38.806 86.159 38.29 86.505 37.641 C 86.859 36.99 87.143 36.384 87.436 35.646 C 87.436 35.646 89.241 32.301 92.134 33.501 C 95.322 34.824 94.062 38.304 94.062 38.304 C 93.689 39.227 93.237 40.194 92.79 41.027 C 92.337 41.862 91.792 42.744 91.268 43.49 C 90.739 44.234 90.109 45.025 89.512 45.679 C 88.913 46.339 88.2 47.027 87.539 47.592 C 86.876 48.159 86.094 48.743 85.375 49.222 C 84.652 49.695 83.816 50.178 83.05 50.569 C 82.279 50.954 81.4 51.34 80.588 51.643 C 80.306 51.748 80.007 51.855 79.702 51.954 L 80.266 50.123 L 80.246 50.186 L 80.242 50.201 L 80.227 50.249 L 80.222 50.264 L 80.202 50.326 L 80.2 50.334 L 80.188 50.373 L 80.179 50.401 C 80.015 50.92 79.836 51.45 79.649 51.972 C 79.277 52.094 78.898 52.211 78.526 52.317 L 79.634 52.015 C 79.455 52.511 79.267 53 79.078 53.469 C 78.68 54.442 78.219 55.455 77.756 56.372 C 77.29 57.287 76.754 58.238 76.228 59.094 C 75.697 59.947 75.097 60.835 74.508 61.629 C 73.918 62.423 73.255 63.243 72.611 63.975 C 71.966 64.706 71.245 65.46 70.55 66.128 C 69.855 66.798 69.081 67.483 68.341 68.089 C 67.6 68.694 66.784 69.306 66.005 69.849 C 65.222 70.394 64.366 70.941 63.55 71.42 C 62.735 71.898 61.842 72.374 60.998 72.785 C 60.154 73.194 59.234 73.598 58.367 73.941 C 57.498 74.281 56.553 74.613 55.669 74.887 C 54.782 75.159 53.823 75.415 52.924 75.621 C 52.024 75.825 51.053 76.007 50.145 76.144 C 49.236 76.278 48.257 76.387 47.345 76.452 C 46.432 76.517 45.451 76.548 44.539 76.545 C 42.919 76.533 41.251 76.432 39.739 76.252 C 38.222 76.073 36.658 75.792 35.254 75.455 C 33.844 75.118 32.39 74.674 31.09 74.198 C 29.79 73.715 28.449 73.131 27.262 72.526 C 26.07 71.921 24.849 71.202 23.77 70.492 C 22.692 69.777 21.59 68.955 20.622 68.152 C 19.655 67.343 18.673 66.433 17.812 65.555 C 16.953 64.673 16.097 63.704 15.344 62.766 C 14.588 61.827 13.836 60.798 13.182 59.82 C 12.529 58.838 11.889 57.775 11.336 56.769 C 10.785 55.759 10.249 54.677 9.795 53.658 C 9.341 52.636 8.908 51.547 8.55 50.53 C 8.191 49.509 7.857 48.424 7.589 47.422 C 7.323 46.416 7.086 45.352 6.907 44.377 C 6.732 43.401 6.587 42.365 6.5 41.43 C 6.412 40.49 6.363 39.491 6.363 38.609 C 6.363 37.373 6.415 36.154 6.5 35.088 C 6.586 34.011 6.72 32.948 6.867 32.038 C 7.019 31.117 7.209 30.208 7.394 29.454 C 7.587 28.684 7.81 27.931 8.013 27.324 C 8.223 26.702 8.459 26.097 8.653 25.641 C 8.859 25.166 9.075 24.713 9.239 24.399 C 9.417 24.059 9.599 23.748 9.702 23.58 C 9.85 23.348 11.265 20.599 14.172 21.803 C 17.556 23.205 15.822 27.256 15.892 27.156 C 15.89 27.16 15.778 27.322 15.767 27.349 C 15.711 27.437 15.662 27.517 15.568 27.703 C 15.456 27.915 15.353 28.125 15.215 28.451 C 15.066 28.798 14.935 29.133 14.78 29.599 C 14.617 30.08 14.474 30.56 14.323 31.172 C 14.167 31.799 14.036 32.422 13.914 33.185 C 13.786 33.96 13.691 34.737 13.617 35.658 C 13.542 36.589 13.502 37.524 13.502 38.609 C 13.502 39.319 13.534 39.983 13.608 40.76 C 13.682 41.54 13.781 42.275 13.933 43.106 C 14.083 43.938 14.257 44.722 14.489 45.588 C 14.719 46.459 14.969 47.27 15.282 48.156 C 15.594 49.042 15.921 49.867 16.317 50.754 C 16.712 51.643 17.116 52.465 17.597 53.34 C 18.076 54.217 18.558 55.016 19.124 55.862 C 19.688 56.711 20.246 57.477 20.897 58.28 C 21.544 59.09 22.185 59.818 22.92 60.567 C 23.655 61.323 24.364 61.981 25.187 62.664 C 26.009 63.349 26.798 63.938 27.711 64.54 C 28.624 65.146 29.494 65.653 30.497 66.163 C 31.503 66.673 32.458 67.097 33.56 67.498 C 34.661 67.908 35.714 68.225 36.915 68.513 C 38.12 68.801 39.275 69.007 40.581 69.162 C 41.894 69.318 43.16 69.4 44.578 69.405 C 45.352 69.41 46.059 69.385 46.836 69.329 C 47.612 69.275 48.32 69.197 49.094 69.082 C 49.869 68.966 50.573 68.835 51.342 68.659 C 52.111 68.485 52.809 68.299 53.566 68.065 C 54.323 67.831 55.009 67.591 55.748 67.299 C 56.489 67.008 57.159 66.714 57.878 66.363 C 58.599 66.014 59.246 65.668 59.941 65.259 C 60.635 64.854 61.258 64.456 61.923 63.991 C 62.592 63.529 63.192 63.075 63.822 62.56 C 64.453 62.045 65.009 61.553 65.598 60.985 C 66.188 60.417 66.706 59.877 67.252 59.257 C 67.799 58.636 68.276 58.047 68.774 57.375 C 69.273 56.702 69.708 56.064 70.157 55.337 C 70.608 54.61 70.931 53.432 70.931 53.432 C 68.693 53.432 67.534 53.279 66.092 53.134 C 57.351 52.255 50.351 45.89 50.351 37.104 C 50.351 28.318 57.475 21.195 66.26 21.195 C 75.046 21.195 82.168 28.318 82.168 37.104 Z M 66.26 28.382 C 61.443 28.382 57.539 32.287 57.539 37.104 C 57.539 41.92 61.443 45.825 66.26 45.825 C 71.077 45.825 74.982 41.92 74.982 37.104 C 74.982 32.287 71.077 28.382 66.26 28.382 Z" style="fill: rgb(255, 146, 131);"/>
</svg>